<svg width="22" height="22" viewBox="0 0 27 24" fill="none" xmlns="http://www.w3.org/2000/svg">
<path d="M0.5 12C0.5 14.9837 1.68526 17.8452 3.79505 19.955C5.90483 22.0647 8.76631 23.25 11.75 23.25C14.7375 23.25 17.6 22.075 19.75 20L17.875 18.125C17.0878 18.958 16.1381 19.6208 15.0846 20.0723C14.0311 20.5238 12.8962 20.7544 11.75 20.75C3.95 20.75 0.0500004 11.325 5.5625 5.8125C11.075 0.3 20.5 4.2125 20.5 12H16.75L21.75 17H21.875L26.75 12H23C23 9.01631 21.8147 6.15483 19.705 4.04505C17.5952 1.93526 14.7337 0.75 11.75 0.75C8.76631 0.75 5.90483 1.93526 3.79505 4.04505C1.68526 6.15483 0.5 9.01631 0.5 12Z" fill="black"/>
</svg>
