<svg width="22" height="22" viewBox="0 0 22 22" fill="none" xmlns="http://www.w3.org/2000/svg">
<path d="M0.5 3.5C0.5 2.70435 0.81607 1.94129 1.37868 1.37868C1.94129 0.81607 2.70435 0.5 3.5 0.5H5V5.75C5 6.34674 5.23705 6.91903 5.65901 7.34099C6.08097 7.76295 6.65326 8 7.25 8H13.25C13.8467 8 14.419 7.76295 14.841 7.34099C15.2629 6.91903 15.5 6.34674 15.5 5.75V0.5H16.0685C16.8641 0.50017 17.627 0.816352 18.1895 1.379L20.621 3.8105C21.1836 4.37298 21.4998 5.13592 21.5 5.9315V18.5C21.5 19.2956 21.1839 20.0587 20.6213 20.6213C20.0587 21.1839 19.2956 21.5 18.5 21.5V13.25C18.5 12.6533 18.2629 12.081 17.841 11.659C17.419 11.2371 16.8467 11 16.25 11H5.75C5.15326 11 4.58097 11.2371 4.15901 11.659C3.73705 12.081 3.5 12.6533 3.5 13.25V21.5C2.70435 21.5 1.94129 21.1839 1.37868 20.6213C0.81607 20.0587 0.5 19.2956 0.5 18.5V3.5ZM14 0.5H6.5V5.75C6.5 5.94891 6.57902 6.13968 6.71967 6.28033C6.86032 6.42098 7.05109 6.5 7.25 6.5H13.25C13.4489 6.5 13.6397 6.42098 13.7803 6.28033C13.921 6.13968 14 5.94891 14 5.75V0.5ZM17 13.25V21.5H5V13.25C5 13.0511 5.07902 12.8603 5.21967 12.7197C5.36032 12.579 5.55109 12.5 5.75 12.5H16.25C16.4489 12.5 16.6397 12.579 16.7803 12.7197C16.921 12.8603 17 13.0511 17 13.25Z" fill="black"/>
</svg>
